# xmcd
#
# Track frame offsets:
#	150
#	12334
#	18096
#	30254
#
# Disc length: 544 seconds
#
# Revision: 1
# Processed by: cddbd v1.5.1PL0 Copyright (c) Steve Scherf et al.
# Submitted via: audiograbber 1.83.01
#
DISCID=1b021e04
DTITLE=One Two Trio - CD single 2005
DYEAR=2005
DGENRE=Nederlandstalig feest
TTITLE0=Alle remmen los
TTITLE1=Pompompom
TTITLE2=Alle remmen los (zonder voice over)
TTITLE3=Zonnezonnezonnebloem
EXTD=
EXTT0=
EXTT1=
EXTT2=
EXTT3=
PLAYORDER=
